<?xml version="1.0" encoding="UTF-8"?>
<svg width="117px" height="24px" viewBox="0 0 117 24" version="1.1" xmlns="http://www.w3.org/2000/svg" xmlns:xlink="http://www.w3.org/1999/xlink">
    <title>logo</title>
    <g id="Page-1" stroke="none" stroke-width="1" fill="none" fill-rule="evenodd">
        <g id="Desktop" transform="translate(-20.000000, -20.000000)" fill="#4DB5D7">
            <g id="logo" transform="translate(20.000000, 20.000000)">
                <polygon id="Path" points="0 23 7.53189679 23 7.53189679 13.3784734 12.7021234 23 22 23 14.6383005 11.3167359 21.0850927 0 12.4042567 0 7.53189679 9.80476953 7.53189679 0 0 0"></polygon>
                <path d="M47.7007635,11.545832 C47.1542454,12.3094432 46.4854965,12.9508783 45.6945169,13.4701373 C43.810501,14.7377089 41.4518624,15.3715373 38.6186448,15.3715373 C35.7854271,15.3715373 33.4340043,14.7377089 31.5643762,13.4701373 C30.7733529,12.9661344 30.0974319,12.3246992 29.536526,11.545832 C30.1118198,10.7974768 30.7877407,10.163691 31.5643762,9.644432 C33.4627799,8.36156178 35.8142027,7.72012668 38.6186448,7.72012668 C41.4374746,7.72012668 43.7961132,8.36156178 45.6945169,9.644432 C46.4711087,10.1789471 47.1399013,10.8127329 47.7007635,11.545832 L47.7007635,11.545832 Z M38.6186448,8.61356326 C37.8708285,8.61356326 37.2308553,8.89990152 36.6986813,9.47262055 C36.166551,10.0453396 35.9004858,10.73641 35.9004858,11.545832 C35.9004858,12.37051 36.166551,13.0692297 36.6986813,13.6419488 C37.2308116,14.2146253 37.8707848,14.501006 38.6186448,14.501006 C39.3808925,14.501006 40.0316676,14.2146253 40.5709699,13.6419488 C41.1103159,13.0692297 41.3799671,12.37051 41.3799671,11.545832 C41.3799671,10.73641 41.1103159,10.0453396 40.5709699,9.47262055 C40.0316676,8.89990152 39.3808925,8.61356326 38.6186448,8.61356326 L38.6186448,8.61356326 Z M38.3597954,18.0747099 L38.6186448,18.0747099 L40.8622246,23 L47.6576438,23 L54,0 L46.1690959,0 L43.9902393,7.14740765 L43.7961132,7.14740765 L41.2505206,0 L35.7494794,0 L33.1823269,7.14740765 L33.0097607,7.14740765 L30.8093005,0 L23,0 L29.3207964,23 L36.1162155,23 L38.3597954,18.0747099 L38.3597954,18.0747099 Z" id="Shape"></path>
                <polygon id="Path" points="55 23 70 23 70 15.5318748 62.6263933 15.5318748 62.6263933 0 55 0"></polygon>
                <path d="M93,12.0113945 C93,10.3399719 92.7282078,8.77492641 92.1846668,7.31621571 C91.6268598,5.88794678 90.8187031,4.60398033 89.7602399,3.46435864 C88.6445826,2.33995783 87.4001838,1.48145747 86.0270436,0.88885757 C84.6109752,0.29629995 83.1019606,0 81.5,0 C79.869377,0 78.3603625,0.29629995 76.9729564,0.88885757 C75.5568879,1.48145747 74.3124891,2.33995783 73.2397166,3.46435864 C72.1812535,4.54313906 71.3731402,5.81949507 70.8152897,7.29342666 C70.2717488,8.72173786 70,10.2943938 70,12.0113945 C70,13.7435738 70.2717488,15.3086194 70.8152897,16.7065311 C71.3731402,18.1804204 72.1812535,19.4567764 73.2397166,20.5355991 C74.341108,21.6752208 75.5855068,22.5337211 76.9729564,23.1111001 C78.3889813,23.7037 79.8979959,24 81.5,24 C83.0733852,24 84.5680904,23.7037 85.9841153,23.1111001 C87.4001838,22.5185002 88.6445826,21.6676103 89.7173551,20.5583881 C90.7900842,19.4188087 91.6054174,18.1272318 92.1632244,16.683742 C92.7210748,15.2554731 93,13.6979957 93,12.0113945 L93,12.0113945 Z M81.5,16.3190749 C80.3986086,16.3190749 79.5189481,15.9240083 78.8610187,15.1338751 C78.1887363,14.3589628 77.8526168,13.31815 77.8526168,12.0113945 C77.8526168,10.7350385 78.1887363,9.68661531 78.8610187,8.86608261 C79.5189481,8.0607708 80.3986086,7.65809376 81.5,7.65809376 C82.5584631,7.65809376 83.4309471,8.05316036 84.1175389,8.84329356 C84.7754684,9.63342676 85.1044549,10.6894604 85.1044549,12.0113945 C85.1044549,13.3333286 84.7754684,14.3741414 84.1175389,15.1338751 C83.4452565,15.9240083 82.5727726,16.3190749 81.5,16.3190749 L81.5,16.3190749 Z" id="Shape"></path>
                <path d="M108.433879,15.2022845 C108.333942,15.8252417 108.05558,16.2886754 107.598704,16.5925858 C107.15611,16.9268534 106.54933,17.0939872 105.778406,17.0939872 C104.52204,17.0939872 103.558364,16.6533425 102.887333,15.7720531 C102.202062,14.8907637 101.859405,13.637239 101.859405,12.0113945 C101.859405,10.4615276 102.202062,9.21557111 102.887333,8.27348271 C103.558364,7.3466152 104.464909,6.88318145 105.607056,6.88318145 C106.263804,6.88318145 106.849182,7.04270481 107.363146,7.36179381 C107.848544,7.65044104 108.283974,8.12148523 108.66948,8.77492641 L115.543762,6.06264875 C114.472986,4.10253664 113.073879,2.59829012 111.346398,1.54982463 C109.618874,0.516622302 107.662955,0 105.478598,0 C103.865292,0 102.351966,0.29629995 100.938533,0.88885757 C99.5394263,1.46615202 98.3115829,2.31708421 97.2551331,3.44156958 C96.1986399,4.52035001 95.3919871,5.79670602 94.8351749,7.2706376 C94.2784061,8.7293483 94,10.3095724 94,12.0113945 C94,13.6979957 94.2784061,15.2706517 94.8351749,16.7293201 C95.3634215,18.1880308 96.1700743,19.4719973 97.2551331,20.5811772 C98.3401485,21.7207989 99.5751116,22.5716888 100.959936,23.1338892 C102.316281,23.7113105 103.822444,24 105.478598,24 C107.70576,24 109.675961,23.4833777 111.389203,22.4501331 C113.116684,21.4168885 114.530117,19.9202101 115.629415,17.960098 C116.072009,17.1243867 116.414666,16.1671197 116.657386,15.088297 C116.885781,14.0398738 117,12.8394954 117,11.4871618 L117,11.2136509 L117,10.8945619 C116.985761,10.7730062 116.975038,10.6248562 116.967875,10.450112 C116.960755,10.27541 116.957195,10.0740715 116.957195,9.84613867 L105.07169,9.84613867 L105.07169,15.2022845 L108.433879,15.2022845 L108.433879,15.2022845 Z" id="Path"></path>
            </g>
        </g>
    </g>
</svg>